<svg id="Layer_1" data-name="Layer 1" xmlns="http://www.w3.org/2000/svg" viewBox="0 0 753.33 90.67"><defs><style>.cls-1{fill:#99d836;}.cls-2{fill:#e6e6e6;}</style></defs><path class="cls-1" d="M214.53,67.5h1.7l-7.54,20H207Z"/><path class="cls-1" d="M221.66,80.58l2.51-3.79-3.73-1.61.37-1.06,3.84,1.26.19-4.34H226l.18,4.34L230,74.12l.37,1.06-3.73,1.61,2.51,3.79-1,.69-2.76-3.66-2.76,3.66Z"/><path class="cls-1" d="M243.31,68.74H247c4.53,0,7,2.69,7,7.47s-2.46,7.61-6.9,7.61h-3.82Zm3.59,13.5c3.43,0,5.13-2.21,5.13-6s-1.7-5.88-5.13-5.88h-1.66V82.24Z"/><path class="cls-1" d="M257.73,68.74h9.34v1.63h-7.4v4.72h6.25v1.63h-6.25v5.47h7.63v1.63h-9.57Z"/><path class="cls-1" d="M270.45,81.87l1.15-1.33A6.39,6.39,0,0,0,276,82.4c2.07,0,3.26-1,3.26-2.37,0-1.61-1.17-2.07-2.69-2.71l-2.18-1c-1.5-.6-3.24-1.66-3.24-3.89s2.07-4,4.94-4a6.55,6.55,0,0,1,4.64,1.87l-1,1.24a5.28,5.28,0,0,0-3.7-1.41c-1.75,0-2.92.83-2.92,2.19s1.4,2,2.69,2.48l2.12.94c1.86.74,3.33,1.8,3.33,4,0,2.39-2,4.3-5.33,4.3A7.67,7.67,0,0,1,270.45,81.87Z"/><path class="cls-1" d="M285.33,68.74h9.34v1.63h-7.4v4.72h6.25v1.63h-6.25v5.47h7.63v1.63h-9.57Z"/><path class="cls-1" d="M298.4,68.74h2.11l4.83,9.47,1.45,3.13h0c-.07-1.49-.26-3.2-.26-4.78V68.74h1.84V83.82h-2.11l-4.83-9.47L300,71.22h0c.07,1.54.26,3.15.26,4.72v7.88H298.4Z"/><path class="cls-1" d="M311.28,68.74h2.07l2.41,8.14c.53,1.77.9,3.22,1.45,5h.09c.55-1.75.94-3.2,1.45-5l2.41-8.14h2l-4.78,15.08h-2.25Z"/><path class="cls-1" d="M325.21,76.21c0-4.87,2.4-7.75,5.8-7.75s5.79,2.88,5.79,7.75S334.41,84.1,331,84.1,325.21,81.16,325.21,76.21Zm9.59,0c0-3.79-1.51-6-3.79-6s-3.79,2.26-3.79,6,1.51,6.19,3.79,6.19S334.8,80.08,334.8,76.21Z"/><path class="cls-1" d="M341,68.74h1.91V82.19h7.45v1.63H341Z"/><path class="cls-1" d="M352.68,68.74h2.07l2.41,8.14c.53,1.77.9,3.22,1.45,5h.09c.55-1.75.94-3.2,1.45-5l2.41-8.14h2l-4.78,15.08h-2.25Z"/><path class="cls-1" d="M368.13,68.74h9.34v1.63h-7.41v4.72h6.26v1.63h-6.26v5.47h7.64v1.63h-9.57Z"/><path class="cls-1" d="M381.31,68.74H385c4.53,0,7,2.69,7,7.47s-2.46,7.61-6.9,7.61h-3.82Zm3.59,13.5c3.42,0,5.13-2.21,5.13-6s-1.71-5.88-5.13-5.88h-1.66V82.24Z"/><path class="cls-1" d="M394.21,76.21c0-4.87,2.4-7.75,5.8-7.75s5.79,2.88,5.79,7.75S403.41,84.1,400,84.1,394.21,81.16,394.21,76.21Zm9.59,0c0-3.79-1.52-6-3.79-6s-3.8,2.26-3.8,6,1.52,6.19,3.8,6.19S403.8,80.08,403.8,76.21Z"/><path class="cls-1" d="M409.19,68.74h4.71c3.06,0,5.29,1.1,5.29,4.25s-2.23,4.46-5.29,4.46h-2.76v6.37h-1.95Zm4.43,7.15c2.35,0,3.64-1,3.64-2.9S416,70.3,413.62,70.3h-2.48v5.59Zm1.41,0,4.6,7.91h-2.19l-3.93-6.89Z"/><path class="cls-1" d="M434.74,68.72h2.16l1.1,9.47c.14,1.26.23,2,.3,3.49h.07c.28-1.49.44-2.23.74-3.47l1.47-5.61h1.84l1.43,5.61c.32,1.24.46,2,.73,3.47h.09c.1-1.49.14-2.23.28-3.47L446,68.72h2.07l-2.21,15.1h-2.39L442,77.75c-.23-.92-.42-1.79-.56-2.71h-.07c-.16.92-.29,1.79-.52,2.71l-1.48,6.07H437Z"/><path class="cls-1" d="M450.93,68.74h9.34v1.63h-7.41v4.72h6.26v1.63h-6.26v5.47h7.64v1.63h-9.57Z"/><path class="cls-1" d="M464.39,68.74h4.27c3.08,0,5.18,1,5.18,3.68a3.28,3.28,0,0,1-2.65,3.29v.09c2.21.34,3.5,1.54,3.5,3.61,0,3-2.3,4.41-5.68,4.41h-4.62Zm3.95,6.35c2.58,0,3.61-.83,3.61-2.51s-1.2-2.23-3.52-2.23h-2.14v4.74Zm.39,7.12c2.58,0,4.07-.85,4.07-2.89,0-1.87-1.42-2.63-4.07-2.63h-2.44v5.52Z"/><path class="cls-1" d="M491.55,81.59l1.22-1.17a3.94,3.94,0,0,0,3.24,2c2.14,0,3.1-1.08,3.1-3.57V70.35h-6.3V68.72h8.26V79c0,2.81-1.27,5.11-5,5.11A5.23,5.23,0,0,1,491.55,81.59Z"/><path class="cls-1" d="M505.78,68.74h4.72c3.06,0,5.29,1.1,5.29,4.25s-2.23,4.46-5.29,4.46h-2.76v6.37h-2Zm4.44,7.15c2.35,0,3.64-1,3.64-2.9s-1.29-2.69-3.64-2.69h-2.48v5.59Zm1.41,0,4.59,7.91H514l-3.93-6.89Z"/><path class="cls-1" d="M529.46,80.58l2.5-3.79-3.72-1.61.37-1.06,3.84,1.26.18-4.34h1.15l.19,4.34,3.84-1.26.36,1.06-3.72,1.61,2.5,3.79-1,.69-2.76-3.66-2.76,3.66Z"/><path class="cls-1" d="M549.93,67.5h1.7l-7.54,20h-1.71Z"/><path class="cls-1" d="M379.77,43.22h8.32v8.32h-8.32Z"/><path class="cls-2" d="M159,7.8h12c8.8,0,14.53,2.38,14.53,11.56,0,5.4-1,9-5.35,11l6,21.16h-10l-4.81-19.6h-2.75v19.6H159Zm12.37,18.58c4.05,0,5.23-2.27,5.23-6.16,0-3.72-1.13-5.94-4.8-5.94h-3.13v12.1Z"/><path class="cls-2" d="M190.39,37.77V21.52c0-9,3.3-14.31,13.13-14.31s13.23,5.29,13.23,14.31V37.77c0,9-3.35,14.42-13.23,14.42S190.39,46.79,190.39,37.77Zm16.47,2.43V19.14c0-2.59-.32-5.13-3.34-5.13s-3.24,2.54-3.24,5.13V40.2c0,2.49.21,5.13,3.24,5.13S206.86,42.69,206.86,40.2Z"/><path class="cls-2" d="M222.63,7.8H234c7.5,0,13.93,1.73,13.93,11.45,0,5.29-2.43,8.05-6.43,8.8,5.08.65,7.78,4.32,7.78,10.53,0,9.08-4.81,13-13.23,13H222.63Zm11.56,17.5c4.37,0,5.29-2.11,5.29-5.78,0-3.46-1.89-5.24-5.51-5.24H232.3v11Zm.16,19.49c4.27,0,5.62-2.16,5.62-6.37,0-4.91-1.46-6.75-5.67-6.75h-2V44.79Z"/><path class="cls-2" d="M253.41,38.31l8.26-1.24c.11,5.67,1.41,7.78,3.84,7.78,2,0,2.43-1.68,2.43-3.19,0-3.62-1.84-5.78-4.81-8.31l-3.78-3.3c-3.35-2.81-5.88-6.1-5.88-11.39,0-7.4,4.69-11.45,12.25-11.45,9.35,0,10.7,7.29,10.86,12.42l-8.32,1c-.11-3.88-.38-6.37-2.86-6.37-1.78,0-2.59,1.89-2.59,3.4,0,3.25,1.67,5,4.21,7.19l3.62,3.18c3.78,3.24,6.8,7.08,6.8,13.13,0,6.21-4.48,11-11.45,11C257.73,52.19,253.74,48,253.41,38.31Z"/><path class="cls-2" d="M281.54,37.77V21.52c0-9,3.3-14.31,13.13-14.31S307.9,12.5,307.9,21.52V37.77c0,9-3.35,14.42-13.23,14.42S281.54,46.79,281.54,37.77ZM298,40.2V19.14c0-2.59-.33-5.13-3.35-5.13-2.86,0-3.24,2.54-3.24,5.13V40.2c0,2.49.21,5.13,3.24,5.13S298,42.69,298,40.2Z"/><path class="cls-2" d="M313.78,7.8h6.81l9,21.06V7.8h8V51.54H331l-9-22.68V51.54h-8.26Z"/><path class="cls-2" d="M361.1,7.8H380v6.54h-9.23v11h8V32.1h-8V51.54H361.1Z"/><path class="cls-2" d="M407.2,7.8h10.37l4.8,25.44L427.56,7.8h10l.76,43.74h-6.86l-.81-29.1-5.08,29.1h-6.1l-5.4-29.32-.65,29.32h-7Z"/><path class="cls-2" d="M444.68,7.8h9.66V51.54h-9.66Z"/><path class="cls-2" d="M460.88,7.8h12c8.8,0,14.52,2.38,14.52,11.56,0,5.4-1,9-5.34,11l6,21.16h-10l-4.8-19.6h-2.76v19.6h-9.66Zm12.36,18.58c4.05,0,5.24-2.27,5.24-6.16,0-3.72-1.13-5.94-4.81-5.94h-3.13v12.1Z"/><path class="cls-2" d="M523,7.8h6.8l9,21.06V7.8h8V51.54h-6.53l-9-22.68V51.54H523Z"/><path class="cls-2" d="M553.32,7.8h11.07c11.4,0,14.69,4.11,14.69,13.83V37.5c0,9.83-3.29,14-14.58,14H553.32ZM564.5,44.85c4.38,0,4.65-1.89,4.65-5.84V20c0-3.83-.44-5.4-4.7-5.4H563v30.3Z"/><polygon class="cls-2" points="601.49 7.8 590.48 7.8 582.21 51.54 591.34 51.54 592.85 42.31 593.72 36.53 596.04 19.47 598.36 36.53 599.28 42.31 600.74 51.54 609.64 51.54 601.49 7.8"/><polygon class="cls-2" points="510.45 7.8 499.43 7.8 491.17 51.54 500.3 51.54 501.81 42.31 502.67 36.53 504.99 19.47 507.32 36.53 508.23 42.31 509.69 51.54 518.6 51.54 510.45 7.8"/></svg>