<svg id="Layer_1" data-name="Layer 1" xmlns="http://www.w3.org/2000/svg" viewBox="0 0 129.33 80"><defs><style>.cls-1{fill:#99d836;}.cls-2{fill:#e6e6e6;}</style></defs><path class="cls-1" d="M109.66,56.84H118v8.31h-8.32Z"/><path class="cls-2" d="M17.28,20.91H29.47c8.91,0,14.7,2.4,14.7,11.69,0,5.47-1,9.07-5.41,11.15l6.07,21.42H34.72L29.85,45.33H27.07V65.17H17.28ZM29.8,39.7c4.1,0,5.3-2.29,5.3-6.22,0-3.78-1.15-6-4.86-6H27.07V39.7Z"/><path class="cls-2" d="M50.08,20.91H69.2v6.61H59.86V38.67H68V45.5H59.86V65.17H50.08Z"/><path class="cls-2" d="M74.39,20.91h10.5l4.86,25.73L95,20.91h10.11l.76,44.26H98.93l-.82-29.45L93,65.17H86.8L81.33,35.5l-.65,29.67H73.63Z"/></svg>